<svg xmlns="http://www.w3.org/2000/svg" viewBox="0 0 220 40" fill="none" role="img" aria-label="Listing Boost">
  <defs>
    <linearGradient id="lb-base" x1="4" y1="2" x2="30" y2="32" gradientUnits="userSpaceOnUse">
      <stop stop-color="#1e0b3d"/>
      <stop offset="0.5" stop-color="#5b21b6"/>
      <stop offset="1" stop-color="#7c3aed"/>
    </linearGradient>
    <linearGradient id="lb-bolt" x1="12" y1="4" x2="20" y2="28" gradientUnits="userSpaceOnUse">
      <stop stop-color="#ffffff"/>
      <stop offset="0.45" stop-color="#ede9fe"/>
      <stop offset="1" stop-color="#c4b5fd"/>
    </linearGradient>
  </defs>
  <rect width="32" height="32" x="0" y="4" rx="9" fill="url(#lb-base)"/>
  <path fill="url(#lb-bolt)" d="M19.2 7.5 9.4 18.2c-.4.42-.12 1.12.45 1.18l3.9.4 2.1 9.55c.12.58.9.78 1.34.28L25.6 16.3c.33-.42.04-1.05-.5-1.05h-4.4l1-7.1c.12-.85-.7-1.45-1.5-.95Z"/>
  <path fill="#faf5ff" fill-opacity="0.92" d="M17.8 11 12 18.5l2.8.3 1.6 7.4 6.9-8.8h-3.5l.6-4.6c.08-.55-.4-.95-.9-.65Z"/>
  <text x="44" y="26" fill="#1e0b3d" font-family="system-ui, -apple-system, sans-serif" font-size="17" font-weight="700">Listing</text>
  <text x="108" y="26" fill="#7c3aed" font-family="system-ui, -apple-system, sans-serif" font-size="17" font-weight="700">Boost</text>
</svg>
